<?xml version="1.0" encoding="UTF-8"?>
<svg version="1.1" xmlns="http://www.w3.org/2000/svg" width="1377" height="1377">
<path d="M0 0 C0.62245605 0.4228125 1.24491211 0.845625 1.88623047 1.28125 C10.73125213 7.32751314 18.93211907 13.95834479 27 21 C27.71542969 21.61488281 28.43085937 22.22976563 29.16796875 22.86328125 C31.12894389 24.55740204 33.06772148 26.27320632 35 28 C35.9590625 28.85464844 36.918125 29.70929688 37.90625 30.58984375 C42.99222554 35.16087418 47.91796191 39.75499408 52.31640625 45.0078125 C54.18511177 47.21904177 56.15234194 49.31858701 58.125 51.4375 C99.96688188 97.91263967 125.46648828 159.97319419 131 222 C131.11085938 223.13953125 131.22171875 224.2790625 131.3359375 225.453125 C137.57709737 300.68440338 114.58672471 376.75638019 68 436 C67.21882812 436.99515625 66.43765625 437.9903125 65.6328125 439.015625 C52.22907082 455.71067691 37.03170217 471.97575716 20 485 C18.49953125 486.19109375 18.49953125 486.19109375 16.96875 487.40625 C-45.63653243 536.8855476 -127.17510994 558.99726157 -206.3125 549.8125 C-210.2261389 549.29662699 -214.11233972 548.68364638 -218 548 C-219.00675781 547.82307617 -220.01351562 547.64615234 -221.05078125 547.46386719 C-235.275231 544.87394379 -249.21167588 541.33744875 -263 537 C-264.22033936 536.61787354 -264.22033936 536.61787354 -265.46533203 536.22802734 C-306.5805609 523.13060573 -343.41180912 500.14659158 -375 471 C-376.46373047 469.69095703 -376.46373047 469.69095703 -377.95703125 468.35546875 C-384.39688014 462.58370461 -390.36035287 456.56497784 -396 450 C-396.83917969 449.04867188 -397.67835938 448.09734375 -398.54296875 447.1171875 C-438.7489635 401.11923915 -463.41741525 342.58997507 -470 282 C-470.0942627 281.14462646 -470.18852539 280.28925293 -470.28564453 279.40795898 C-471.20474483 269.93168959 -471.24342709 260.44983534 -471.25 250.9375 C-471.25067474 250.05561005 -471.25134949 249.17372009 -471.25204468 248.2651062 C-471.21291563 215.90026176 -465.94265417 184.80601423 -456 154 C-455.70786621 153.09217773 -455.41573242 152.18435547 -455.11474609 151.24902344 C-445.6678397 122.46490999 -431.32778643 95.1221866 -413 71 C-412.55269531 70.40993164 -412.10539062 69.81986328 -411.64453125 69.21191406 C-406.37249692 62.29698387 -400.92745608 55.62026093 -395.03515625 49.21875 C-393.2045558 47.22300901 -391.44163517 45.18769389 -389.6875 43.125 C-382.36388067 34.7527331 -374.45216622 27.084683 -365.73046875 20.18359375 C-363.94905585 18.75897314 -362.19912964 17.29378927 -360.48828125 15.78515625 C-345.12202326 2.30322771 -327.17453656 -8.71714482 -309 -18 C-308.14148438 -18.44150391 -307.28296875 -18.88300781 -306.3984375 -19.33789062 C-215.86716786 -65.44177794 -107.72418735 -61.51204001 0 0 Z " fill="#401D81" transform="translate(888,373)"/>
<path d="M0 0 C2.77088007 1.15955307 5.39006444 2.51617877 8 4 C8 4.66 8 5.32 8 6 C8.66 6 9.32 6 10 6 C12.43356163 13.3006849 11.6157002 21.31400391 12 29 C49.62 29 87.24 29 126 29 C126 23.72 126 18.44 126 13 C128.42105263 4.52631579 128.42105263 4.52631579 134.0625 1.1875 C138.80724337 -0.75077814 143.26427365 0.50074995 148 2 C149.34897976 2.63440983 150.68844056 3.29145639 152 4 C152 4.66 152 5.32 152 6 C152.66 6 153.32 6 154 6 C155.01758537 11.01581451 155.11810913 15.78750233 155.0625 20.875 C155.041875 23.55625 155.02125 26.2375 155 29 C162.92 29.33 170.84 29.66 179 30 C179 30.66 179 31.32 179 32 C180.6396875 32.1546875 180.6396875 32.1546875 182.3125 32.3125 C186 33 186 33 187.9375 34.4375 C189 36 189 36 189 38 C189.99 38.33 190.98 38.66 192 39 C192 39.66 192 40.32 192 41 C192.66 41 193.32 41 194 41 C194 42.65 194 44.3 194 46 C194.99 46.33 195.98 46.66 197 47 C197.83605083 68.99455702 198.15224109 90.95473828 198.1343255 112.96386623 C198.13172192 117.19362375 198.1341611 121.42337956 198.13571167 125.65313721 C198.13751157 132.74923094 198.13518613 139.84531413 198.13037109 146.94140625 C198.12494124 155.03476076 198.12669083 163.12809 198.1321975 171.22144389 C198.13680204 178.28331739 198.13734382 185.34518348 198.13475883 192.407058 C198.13323452 196.57499302 198.13289151 200.74291636 198.13629532 204.91085052 C198.14783128 221.49154843 198.0635532 238.06807608 197.67265296 254.64479685 C197.63569295 256.23986555 197.60169026 257.83500584 197.57081437 259.43020391 C197.52671392 261.63167099 197.46997558 263.83244094 197.40939331 266.0335083 C197.37881773 267.2855669 197.34824215 268.5376255 197.31674004 269.82762527 C197.0180416 272.81930066 196.54849046 274.47681743 195 277 C194.67 277.66 194.34 278.32 194 279 C193.34 279 192.68 279 192 279 C191.67 279.99 191.34 280.98 191 282 C190.34 282 189.68 282 189 282 C189 282.66 189 283.32 189 284 C187.9375 285.5625 187.9375 285.5625 186 287 C182.3125 287.6875 182.3125 287.6875 179 288 C179 288.66 179 289.32 179 290 C117.27220126 290.89299843 55.57781491 291.40463404 -6.1531601 290.59383392 C-8.55043935 290.56265685 -10.94773274 290.53285032 -13.34503174 290.50323486 C-17.07963089 290.4564364 -20.81411244 290.40410897 -24.54857063 290.34718513 C-25.9250674 290.32681965 -27.30158848 290.30803077 -28.6781292 290.29089165 C-30.55835192 290.26700481 -32.43848514 290.23635384 -34.31860352 290.20532227 C-35.90077415 290.18200584 -35.90077415 290.18200584 -37.51490784 290.15821838 C-40 290 -40 290 -42 289 C-42 288.34 -42 287.68 -42 287 C-43.98 287 -45.96 287 -48 287 C-48.495 285.515 -48.495 285.515 -49 284 C-49.66 284 -50.32 284 -51 284 C-52.65625 282.2421875 -52.65625 282.2421875 -54.5 279.875 C-55.1084375 279.10929687 -55.716875 278.34359375 -56.34375 277.5546875 C-59.57577692 272.56943842 -60.25403484 267.90384115 -60.31884766 262.03833008 C-60.32888762 261.3632972 -60.33892757 260.68826433 -60.34927177 259.99277592 C-60.38015507 257.75170214 -60.39720842 255.51075106 -60.4140625 253.26953125 C-60.43295996 251.66910914 -60.45263154 250.06869601 -60.47302246 248.46829224 C-60.52525563 244.1505687 -60.5648209 239.83281668 -60.60129547 235.51493454 C-60.63311978 231.88680456 -60.67135912 228.25875179 -60.70925713 224.63068104 C-61.05583412 191.16501284 -61.21263567 157.70009736 -61.01314545 124.23310852 C-60.99945539 121.90748401 -60.98666849 119.58185554 -60.97393799 117.25622559 C-60.91828278 107.37033051 -60.83972182 97.48489931 -60.73553467 87.59939575 C-60.70246035 84.43557548 -60.67555036 81.27179963 -60.65411377 78.10787964 C-60.62845434 74.41193703 -60.58825336 70.71642858 -60.53693962 67.02075577 C-60.51250053 65.02100112 -60.50217932 63.02108942 -60.49232483 61.02120972 C-60.35804175 52.82635318 -59.87403326 45.47455123 -54 39.1875 C-53.505 38.64480469 -53.01 38.10210937 -52.5 37.54296875 C-52.005 37.03378906 -51.51 36.52460938 -51 36 C-50.50757813 35.46246094 -50.01515625 34.92492187 -49.5078125 34.37109375 C-47.30856112 32.37125636 -44.80869744 31.85482096 -42 31 C-41.67 30.67 -41.34 30.34 -41 30 C-35.65581314 29.00621753 -30.48621475 28.87708158 -25.0625 28.9375 C-24.28326172 28.94201172 -23.50402344 28.94652344 -22.70117188 28.95117188 C-20.80074732 28.96283092 -18.90036294 28.98076123 -17 29 C-17.02320313 27.84242188 -17.04640625 26.68484375 -17.0703125 25.4921875 C-17.08908148 23.95313149 -17.10728046 22.41406845 -17.125 20.875 C-17.14175781 20.11445313 -17.15851562 19.35390625 -17.17578125 18.5703125 C-17.22041907 13.39232587 -16.95290604 8.63642316 -13.75 4.3125 C-9.35102694 1.0132702 -5.52420186 -0.77338826 0 0 Z " fill="#E2D4FD" transform="translate(648,464)"/>
<path d="M0 0 C2.88460968 -0.00202977 5.76921268 -0.00577613 8.65382004 -0.00990677 C34.3041435 -0.04205146 59.91976826 0.32556307 85.55790329 1.12293625 C86.32421714 27.94591344 86.66949088 54.75102114 86.68128586 81.58413696 C86.68288634 83.97263388 86.6864341 86.36112079 86.69047165 88.74961472 C86.69645565 92.600346 86.69646646 96.45103794 86.6922226 100.30177116 C86.6912493 101.71529813 86.69175699 103.12882725 86.69406128 104.54235268 C86.71083186 117.08743234 86.16616112 129.59430998 85.55790329 142.12293625 C46.96613937 142.95250093 8.39656566 143.28555531 -30.20262587 143.25150466 C-35.77468805 143.24711292 -41.34672803 143.25030891 -46.91878885 143.25513375 C-52.42505982 143.2597026 -57.93132127 143.26030025 -63.43759352 143.25769508 C-66.66896359 143.25616638 -69.90031571 143.25625994 -73.13168526 143.25923157 C-86.93770018 143.26919176 -100.66805522 143.11084516 -114.44209671 142.12293625 C-115.426403 109.78846711 -115.53092704 77.46974881 -115.50459671 45.12293625 C-115.50374069 44.06390594 -115.50288467 43.00487564 -115.50200272 41.91375351 C-115.49049591 28.65013133 -115.47025491 15.38653313 -115.44209671 2.12293625 C-112.92384608 0.86381093 -111.14545375 0.96391382 -108.32515335 0.91761398 C-107.23407776 0.89767883 -106.14300217 0.87774368 -105.01886368 0.85720444 C-103.80888214 0.84048187 -102.5989006 0.82375931 -101.35225296 0.80653 C-100.07101044 0.78565826 -98.78976791 0.76478653 -97.46969986 0.74328232 C-93.90132707 0.68641532 -90.3328866 0.63719113 -86.76436996 0.59030533 C-84.50098433 0.5603885 -82.2376237 0.52895367 -79.97426224 0.49726486 C-53.31694558 0.12952689 -26.65965484 0.01464106 0 0 Z " fill="#411E82" transform="translate(731.4420967102051,580.8770637512207)"/>
<path d="M0 0 C1.5169043 -0.0309375 1.5169043 -0.0309375 3.06445312 -0.0625 C9.00863509 -0.09351987 13.36758334 0.25750426 18.5625 3.25 C20.5625 6.25 20.5625 6.25 20.5 8.6875 C19.27886852 12.02525938 17.43926906 13.25839065 14.5625 15.25 C16.40778769 23.71131918 19.09423746 31.33388932 22.5625 39.25 C23.98775586 42.62139961 25.39898164 45.99866531 26.8125 49.375 C27.50423624 51.02384566 28.1968801 52.67231097 28.890625 54.3203125 C29.33776855 55.38403076 29.33776855 55.38403076 29.79394531 56.46923828 C30.34526645 57.74666407 30.94028273 59.00556546 31.5625 60.25 C34.38493232 55.80198958 36.61616045 51.15203853 38.8125 46.375 C39.18890625 45.59769531 39.5653125 44.82039062 39.953125 44.01953125 C42.24487596 39.00632602 43.09419134 35.75250461 41.5625 30.25 C38.96993705 24.0322431 36.04256226 17.98325058 30.625 13.8125 C27.5625 11.25 27.5625 11.25 26.9375 8.0625 C27.5625 5.25 27.5625 5.25 28.5625 3.5 C34.85782252 -0.43457657 42.59861593 -0.05763372 49.75 0 C50.72130859 -0.00773438 51.69261719 -0.01546875 52.69335938 -0.0234375 C54.10391602 -0.01957031 54.10391602 -0.01957031 55.54296875 -0.015625 C56.38754639 -0.01336914 57.23212402 -0.01111328 58.10229492 -0.00878906 C61.64473795 0.36384065 64.49429199 1.47647006 67.375 3.5625 C68.5625 5.25 68.5625 5.25 69.0625 7.6875 C68.5625 10.25 68.5625 10.25 66 12.0625 C65.195625 12.784375 64.39125 13.50625 63.5625 14.25 C63.2786059 21.91514065 66.92427053 29.18013789 69.5625 36.25 C70.39710339 38.66622834 71.23046511 41.08288598 72.0625 43.5 C74.13661624 49.33386347 76.61590577 54.8082047 79.5625 60.25 C82.20509482 57.60740518 83.13665954 54.55388203 84.4375 51.125 C85.97677631 47.08541773 87.56880553 43.15416861 89.55078125 39.30859375 C91.68236663 35.13305031 93.31921763 30.85529807 94.875 26.4375 C95.15150391 25.68791016 95.42800781 24.93832031 95.71289062 24.16601562 C97.36449945 19.76608908 97.36449945 19.76608908 96.5625 15.25 C94.90717377 14.23133771 93.23989862 13.23189187 91.5625 12.25 C89.5625 9.25 89.5625 9.25 89.6875 6.75 C90.76654289 3.66702032 91.72782374 2.82482015 94.5625 1.25 C98.71492587 0.16902738 102.72117657 0.08404493 107 0.0625 C108.27746094 0.04832031 109.55492187 0.03414062 110.87109375 0.01953125 C115.90250023 0.33366139 119.37963554 1.46142369 123.5625 4.25 C124.0625 7.125 124.0625 7.125 123.5625 10.25 C121.24415231 12.56834769 119.21688009 13.98910336 116.171875 15.203125 C112.01530216 18.46367016 110.82904114 22.96378535 109 27.8125 C108.62681641 28.76447266 108.25363281 29.71644531 107.86914062 30.69726562 C107.11990805 32.61139198 106.37698914 34.52800158 105.64038086 36.44702148 C102.78150951 43.88138205 99.74506673 51.23462984 96.625 58.5625 C94.25292507 64.15358392 91.95233666 69.75335183 89.8125 75.4375 C88.24317777 79.59251759 86.5288282 83.55147643 84.4609375 87.48046875 C83.56141309 89.25214075 82.81117862 91.09699839 82.0625 92.9375 C80.58599814 96.19810827 78.91534584 98.5726237 76.5625 101.25 C73.7469793 100.94833707 72.64937684 100.33687684 70.625 98.3125 C67.82129221 94.14941874 65.70445802 89.78225899 63.5625 85.25 C63.08683594 84.26773438 62.61117187 83.28546875 62.12109375 82.2734375 C58.57754052 74.81624716 55.58744115 67.23712981 52.76171875 59.48828125 C51.69046365 56.41528927 51.69046365 56.41528927 50.5625 54.25 C47.58281952 59.87828535 45.23521332 65.58653683 42.98046875 71.5390625 C34.29317038 94.27441636 34.29317038 94.27441636 29.5625 100.25 C26.75 101.25 26.75 101.25 24.5625 101.25 C21.9831229 98.39426107 20.18503039 95.63510357 18.6796875 92.125 C17.33011323 89.01727915 15.96594122 85.92009718 14.5546875 82.83984375 C7.27807104 66.87690573 0.27634459 50.77023044 -5.8125 34.3125 C-6.05210449 33.67231934 -6.29170898 33.03213867 -6.53857422 32.37255859 C-7.51738367 29.75471489 -8.47600618 27.13609258 -9.37109375 24.48828125 C-11.7524863 18.08498129 -15.60508663 15.56252686 -21.4375 12.25 C-22.4375 11.25 -22.4375 11.25 -22.8125 7.875 C-22.4375 4.25 -22.4375 4.25 -20.3125 2.375 C-13.74981264 -0.1930081 -6.9488291 0.03529564 0 0 Z " fill="#E1D2FC" transform="translate(665.4375,603.75)"/>
<path d="M0 0 C2.63882503 -0.00067699 5.2776487 -0.00165022 7.91647339 -0.00289917 C13.44855252 -0.00470886 18.98061824 -0.00235657 24.51269531 0.00244141 C30.05599862 0.00719641 35.59927494 0.00733534 41.14257812 0.00244141 C79.0419479 -0.03023718 116.91272041 0.3184889 154.8046875 1.1328125 C155.74642396 4.61405776 155.93833175 7.70269347 155.9296875 11.3203125 C155.93226563 12.38636719 155.93484375 13.45242188 155.9375 14.55078125 C155.83324988 17.36246832 155.61716649 20.06698849 155.29638672 22.85668945 C155.20477264 23.65967972 155.11315857 24.46266998 155.01876831 25.28999329 C154.94812164 25.89812363 154.87747498 26.50625397 154.8046875 27.1328125 C126.41158963 27.94948678 98.0416666 28.29944256 69.63725662 28.26138306 C66.56707922 28.25775326 63.49690659 28.25618087 60.42672729 28.25512695 C25.21188328 28.24013841 -9.98863911 27.89550267 -45.1953125 27.1328125 C-45.91873317 23.69253883 -46.31455853 20.56991577 -46.29296875 17.05078125 C-46.28974609 16.11943359 -46.28652344 15.18808594 -46.28320312 14.22851562 C-46.27482422 13.26880859 -46.26644531 12.30910156 -46.2578125 11.3203125 C-46.25330078 10.34126953 -46.24878906 9.36222656 -46.24414062 8.35351562 C-46.23239932 5.94654813 -46.21510403 3.53972317 -46.1953125 1.1328125 C-30.79168955 0.10235929 -15.43384928 -0.01422357 0 0 Z " fill="#421F82" transform="translate(662.1953125,523.8671875)"/>
</svg>
